# xmcd CD database file
#
# Track frame offsets:
#	183
#	16953
#	35385
#	52620
#	71030
#	85025
#	107665
#	123383
#	137525
#	150188
#	175878
#	194283
#	210070
#	234130
#	245883
#	257013
#	270950
#	287188
#
# Disc length: 3987 seconds
#
# Revision: 0
# Processed by: cddbd v1.5.2PL0 Copyright (c) Steve Scherf et al.
# Submitted via: CDex 1.70beta2
#
DISCID=e00f9112
DTITLE=Paramount Union Jazz Band  - 88
DYEAR=1989
DGENRE=Jazz
TTITLE0=As Long As I Live
TTITLE1=Chimes Blues
TTITLE2=Way Down Yonder In New Orleans
TTITLE3=Train No. 1
TTITLE4=Bill Bayley Won't You Please Come Home
TTITLE5=Georgia In My Mind
TTITLE6=Maryland, My Maryland
TTITLE7=Take Me Back To New Orleans
TTITLE8=Panama Rag
TTITLE9=Caravan
TTITLE10=Basin Street Blues
TTITLE11=China Boy
TTITLE12=Creole Love Call
TTITLE13=Les Champs-Élysées
TTITLE14=Jazz Lips
TTITLE15=South Rampart Street Parade
TTITLE16=Jeep's Blues
TTITLE17=Ich Glaub' Ich Hock' Jetzt Ab
EXTD=YEAR: 1989
EXTT0=
EXTT1=
EXTT2=
EXTT3=
EXTT4=
EXTT5=
EXTT6=
EXTT7=
EXTT8=
EXTT9=
EXTT10=
EXTT11=
EXTT12=
EXTT13=
EXTT14=
EXTT15=
EXTT16=
EXTT17=
PLAYORDER=
